<?xml version="1.0" standalone="no"?>
<!DOCTYPE svg PUBLIC "-//W3C//DTD SVG 20010904//EN"
 "http://www.w3.org/TR/2001/REC-SVG-20010904/DTD/svg10.dtd">
<svg version="1.0" xmlns="http://www.w3.org/2000/svg"
 width="270.000000pt" height="270.000000pt" viewBox="0 0 270.000000 270.000000"
 preserveAspectRatio="xMidYMid meet">
<metadata>
Created by potrace 1.11, written by Peter Selinger 2001-2013
</metadata>
<g transform="translate(0.000000,270.000000) scale(0.100000,-0.100000)"
fill="#000000" stroke="none">
<path d="M1046 2553 c-1 -1 -11 -4 -22 -6 -34 -7 -74 -26 -74 -36 0 -5 -9 -13
-20 -16 -11 -3 -20 -11 -20 -17 0 -5 -9 -23 -21 -39 -13 -19 -21 -49 -24 -89
-2 -33 -6 -64 -9 -69 -4 -5 0 -12 6 -15 10 -5 10 -7 1 -12 -7 -3 -13 -12 -13
-20 0 -9 5 -13 13 -9 6 4 3 -1 -7 -9 -11 -9 -17 -16 -13 -16 4 0 1 -10 -8 -23
-8 -13 -12 -27 -8 -30 3 -4 -1 -7 -11 -7 -9 0 -15 -4 -12 -8 3 -5 -4 -14 -14
-22 -10 -8 -16 -18 -13 -23 3 -6 1 -7 -4 -4 -6 4 -23 0 -39 -8 -15 -7 -31 -12
-36 -9 -4 3 -8 1 -8 -4 0 -9 -12 -11 -62 -13 -15 0 -30 -5 -33 -10 -4 -5 -12
-9 -18 -9 -7 0 -6 4 3 10 20 13 10 12 -29 -1 -17 -6 -31 -16 -31 -22 0 -7 -5
-5 -10 3 -6 10 -10 11 -10 3 0 -7 -6 -13 -13 -13 -19 0 -59 -49 -51 -62 4 -6
3 -9 -2 -6 -10 7 -27 -10 -33 -32 -2 -8 -6 -24 -9 -34 -4 -14 -1 -17 9 -12 8
4 6 1 -3 -6 -13 -11 -15 -22 -9 -51 5 -20 6 -39 2 -43 -3 -4 0 -4 7 0 8 5 13
3 11 -5 -1 -8 -1 -18 0 -24 1 -13 51 -71 51 -59 0 4 7 -2 16 -14 8 -12 19 -20
24 -17 4 3 10 1 12 -4 1 -6 18 -13 37 -16 19 -3 38 -8 43 -11 4 -3 8 1 8 8 0
10 2 10 9 0 11 -17 21 -17 32 0 5 7 9 8 9 2 0 -6 17 -12 38 -13 20 -1 43 -3
50 -3 6 -1 12 -5 12 -10 0 -4 6 -8 14 -8 7 0 26 -12 42 -27 16 -15 33 -26 37
-25 5 1 6 -2 3 -7 -4 -5 2 -14 11 -20 10 -6 15 -11 10 -11 -4 0 0 -17 8 -37
16 -37 29 -226 16 -238 -3 -4 -6 -10 -7 -13 -4 -36 -85 -122 -113 -122 -8 0
-23 -8 -34 -18 -11 -9 -17 -11 -13 -4 11 18 -5 15 -21 -5 -8 -10 -12 -13 -9
-6 8 14 -33 14 -51 0 -8 -6 -13 -6 -13 0 0 5 -7 10 -15 10 -8 0 -12 -5 -8 -10
3 -5 -4 -6 -17 -2 -17 6 -21 4 -14 -6 6 -12 5 -12 -9 0 -9 7 -17 9 -17 4 0 -9
-53 -39 -57 -31 -3 6 -43 -50 -43 -61 0 -6 -4 -11 -9 -11 -14 0 -20 -37 -7
-50 8 -9 8 -11 -3 -8 -7 2 -15 -7 -17 -20 -3 -17 0 -21 8 -16 10 6 10 4 3 -7
-6 -8 -10 -21 -9 -29 1 -8 2 -22 3 -30 2 -28 93 -134 105 -123 3 4 6 1 6 -6 0
-8 8 -11 20 -8 11 3 18 1 14 -4 -6 -10 -4 -10 76 -15 86 -5 104 -8 118 -21 7
-6 22 -10 33 -8 12 3 19 2 16 -2 -8 -7 18 -33 33 -33 6 0 8 -5 5 -10 -3 -6 -2
-10 3 -10 10 0 49 -80 44 -92 -1 -5 4 -8 10 -8 9 0 8 -4 -2 -10 -8 -5 -10 -10
-5 -10 6 0 10 -21 10 -47 -1 -27 3 -54 8 -61 6 -7 6 -12 -1 -12 -13 0 21 -68
52 -102 39 -45 116 -76 176 -71 80 6 73 3 137 58 54 47 76 103 71 183 -1 33 0
58 3 56 6 -4 24 73 20 89 -1 5 2 6 7 3 4 -2 18 10 30 28 12 18 35 39 50 47 15
7 33 18 41 24 18 13 222 16 239 3 6 -6 12 -8 12 -4 0 4 12 -1 26 -11 25 -16
27 -16 40 2 8 10 14 14 14 9 0 -6 -5 -15 -11 -21 -8 -8 -4 -16 15 -28 14 -10
23 -21 20 -26 -3 -5 0 -9 5 -9 6 0 11 -7 11 -15 0 -8 5 -15 10 -15 6 0 10 -10
10 -23 0 -13 6 -29 13 -36 10 -11 9 -12 -2 -6 -10 6 -12 4 -5 -6 4 -7 9 -28 9
-45 1 -17 5 -36 10 -44 5 -9 4 -11 -3 -6 -7 4 -12 2 -12 -3 0 -6 5 -11 12 -11
6 0 8 -3 5 -6 -4 -4 3 -20 15 -37 12 -17 17 -27 10 -23 -22 13 -12 -4 19 -34
17 -16 36 -27 42 -23 5 3 7 2 4 -4 -7 -11 19 -26 68 -41 23 -6 33 -5 45 8 8 9
11 11 7 4 -4 -7 -4 -15 1 -18 10 -6 74 15 83 27 3 5 10 9 15 9 15 0 74 50 69
58 -3 5 2 11 11 14 8 3 13 10 10 15 -4 5 -1 15 6 23 17 17 16 54 -1 50 -7 -1
-10 2 -6 8 3 6 10 8 15 5 4 -3 7 3 5 12 -2 10 -4 28 -4 41 -1 13 -4 21 -8 19
-5 -3 -9 6 -9 19 -2 22 -74 107 -74 87 0 -4 -4 -2 -9 6 -14 22 -77 41 -92 27
-9 -8 -10 -8 -4 2 8 16 -26 13 -37 -3 -5 -6 -8 -5 -8 3 0 7 -13 12 -30 12 -36
0 -110 22 -110 32 0 5 -7 8 -15 8 -9 0 -18 7 -21 15 -4 8 -10 12 -15 9 -5 -3
-9 2 -9 11 0 9 -5 13 -11 9 -7 -4 -10 -1 -7 7 3 8 -3 29 -12 47 -15 27 -17 54
-15 147 1 67 7 120 13 128 7 8 9 17 5 20 -3 4 -1 7 5 7 7 0 12 4 12 10 0 17
58 69 84 76 14 3 26 11 26 16 0 6 9 8 20 5 11 -3 20 -2 20 2 0 4 10 7 23 8 86
2 125 8 120 16 -3 5 0 7 8 5 16 -6 69 18 69 32 0 5 10 12 21 15 17 6 19 9 8
16 -11 7 -10 9 5 9 12 0 16 5 12 16 -3 8 -2 12 4 9 6 -3 11 -1 11 4 2 14 4 23
12 41 13 32 12 75 -3 88 -8 8 -9 11 -2 7 14 -7 17 11 2 20 -6 4 -8 11 -5 16 4
5 1 9 -5 9 -6 0 -9 4 -6 8 8 14 -61 85 -75 76 -7 -4 -10 -3 -6 3 4 6 -6 16
-20 22 -34 16 -133 24 -133 11 0 -5 -7 -7 -15 -4 -8 4 -15 1 -15 -6 0 -6 -4
-9 -10 -5 -5 3 -18 -3 -30 -15 -11 -11 -20 -17 -20 -12 -1 4 -8 -5 -16 -20 -8
-16 -19 -28 -23 -28 -16 0 -33 -61 -35 -122 0 -21 -5 -38 -11 -38 -5 0 -3 -5
5 -10 9 -6 11 -13 5 -17 -9 -7 -12 -16 -18 -58 -1 -5 -8 -16 -15 -23 -7 -8
-10 -18 -7 -23 4 -5 1 -9 -4 -9 -6 0 -11 -7 -11 -16 0 -8 -4 -13 -9 -10 -5 3
-12 -1 -15 -10 -3 -8 -10 -12 -16 -9 -6 3 -13 -1 -16 -9 -3 -9 -10 -13 -15
-10 -5 3 -9 -3 -9 -13 0 -14 -2 -15 -9 -4 -5 8 -11 9 -15 3 -3 -6 -17 -9 -31
-7 -14 1 -27 0 -29 -4 -2 -3 -26 -5 -53 -4 -26 1 -65 3 -85 4 -21 1 -38 6 -38
13 0 7 -4 6 -9 -2 -6 -11 -10 -10 -15 3 -4 12 -13 15 -27 12 -12 -3 -19 -3
-16 0 7 7 -39 53 -53 53 -6 0 -8 5 -5 10 4 6 2 16 -3 23 -17 22 -31 81 -33
142 -2 62 -30 145 -49 145 -5 0 -10 6 -10 14 0 14 -49 52 -62 48 -5 -1 -8 2
-8 6 0 11 -17 13 -132 15 -53 1 -100 5 -104 10 -4 4 -15 7 -25 7 -10 0 -33 14
-51 30 -18 17 -36 30 -41 30 -4 0 -5 5 -2 10 3 6 1 10 -4 10 -6 0 -11 8 -11
18 0 10 -5 23 -12 30 -11 11 -13 20 -20 94 -2 21 -7 38 -11 38 -5 0 -5 5 -2
10 4 6 12 7 18 3 7 -4 6 0 -2 10 -11 14 -11 20 0 34 8 10 9 14 2 10 -8 -5 -11
0 -10 13 1 11 5 20 10 20 4 0 5 5 2 10 -3 6 -1 10 4 10 6 0 11 5 11 11 0 5 -6
7 -12 3 -7 -4 0 8 17 27 53 61 74 79 89 79 8 0 16 5 18 11 2 7 15 13 28 15 42
6 54 9 69 18 10 6 12 5 7 -2 -4 -7 -1 -12 9 -12 9 0 14 3 12 8 -3 4 9 7 26 8
42 0 59 6 75 24 12 13 13 13 7 0 -4 -8 14 7 40 33 32 33 45 55 42 68 -3 10 0
17 6 16 14 -3 16 26 2 35 -6 5 -6 8 3 8 7 0 12 13 12 31 0 25 -3 30 -17 25
-16 -6 -16 -5 0 8 12 9 14 16 8 21 -6 3 -11 15 -11 26 0 13 -4 18 -12 13 -8
-5 -9 -2 -5 9 4 11 1 17 -8 17 -8 0 -15 5 -15 11 0 5 -4 7 -10 4 -6 -3 -7 1
-4 9 3 9 1 16 -6 16 -6 0 -18 7 -27 15 -8 8 -19 13 -24 10 -5 -4 -9 -1 -9 5 0
7 -7 10 -15 6 -8 -3 -15 -2 -15 2 0 6 -68 11 -74 5z m-79 -118 c0 -8 -4 -12
-9 -9 -5 3 -6 10 -3 15 9 13 12 11 12 -6z m118 -154 c3 -5 2 -12 -3 -15 -5 -3
-9 1 -9 9 0 17 3 19 12 6z m5 -95 c0 -3 -4 -8 -10 -11 -5 -3 -10 -1 -10 4 0 6
5 11 10 11 6 0 10 -2 10 -4z m-440 -526 c0 -5 -2 -10 -4 -10 -3 0 -8 5 -11 10
-3 6 -1 10 4 10 6 0 11 -4 11 -10z m193 -55 c-3 -9 -8 -14 -10 -11 -3 3 -2 9
2 15 9 16 15 13 8 -4z m43 -65 c0 -12 -4 -16 -9 -11 -5 5 -6 14 -3 20 10 15
12 14 12 -9z m28 -78 c3 -5 -1 -9 -9 -9 -8 0 -12 4 -9 9 3 4 7 8 9 8 2 0 6 -4
9 -8z m1256 -276 c0 -2 -7 -7 -16 -10 -8 -3 -12 -2 -9 4 6 10 25 14 25 6z
m-935 -46 c-5 -9 23 -15 48 -11 4 0 7 -3 7 -9 0 -5 4 -10 10 -10 13 0 79 -67
72 -74 -3 -3 0 -6 6 -6 7 0 11 -3 11 -7 -4 -22 2 -54 9 -50 4 3 7 -42 7 -99 0
-57 -4 -104 -9 -104 -5 0 -2 -8 5 -17 7 -10 9 -15 4 -10 -8 6 -35 -51 -37 -80
-1 -6 -8 -9 -16 -5 -10 3 -13 1 -8 -6 4 -7 -3 -16 -18 -23 -14 -7 -23 -15 -21
-19 3 -5 -2 -11 -11 -14 -8 -3 -12 -2 -9 3 3 5 -9 3 -26 -6 -22 -11 -61 -16
-123 -16 -101 -1 -167 14 -197 44 -10 10 -23 19 -27 19 -5 0 -14 11 -20 25 -6
14 -16 25 -21 25 -6 0 -8 9 -6 20 3 13 -2 20 -12 20 -12 0 -13 3 -4 14 9 10 8
16 -4 26 -12 10 -13 16 -4 26 9 11 8 14 -2 15 -11 0 -11 2 -1 6 10 4 9 9 -5
19 -17 13 -17 14 2 7 18 -6 18 -5 6 10 -10 13 -10 17 -1 17 9 0 9 4 -1 17 -8
9 -9 14 -3 10 7 -4 12 4 12 21 3 53 7 66 25 85 15 15 16 21 6 33 -9 12 -9 13
2 10 22 -8 60 29 53 51 -5 14 -4 15 4 4 9 -12 13 -12 26 -2 9 7 13 18 9 25 -3
6 3 3 14 -7 15 -13 22 -15 25 -6 3 8 27 13 64 15 32 1 59 3 59 4 0 1 19 3 42
4 23 1 45 5 49 9 11 10 16 9 9 -3z m-328 -52 c2 -17 0 -19 -7 -8 -5 8 -6 18
-4 22 8 12 10 10 11 -14z m-97 -168 c0 -5 -2 -10 -4 -10 -3 0 -8 5 -11 10 -3
6 -1 10 4 10 6 0 11 -4 11 -10z m-343 -145 c0 -8 -4 -12 -9 -9 -5 3 -6 10 -3
15 9 13 12 11 12 -6z m323 9 c0 -8 -19 -13 -24 -6 -3 5 1 9 9 9 8 0 15 -2 15
-3z m-36 -42 c3 -5 -1 -9 -9 -9 -8 0 -12 4 -9 9 3 4 7 8 9 8 2 0 6 -4 9 -8z
m170 -228 c3 -8 2 -12 -4 -9 -6 3 -10 10 -10 16 0 14 7 11 14 -7z"/>
</g>
</svg>
